<mxfile host="app.diagrams.net" modified="2024-01-16T03:18:03.042Z" agent="Mozilla/5.0 (Windows NT 10.0; Win64; x64) AppleWebKit/537.36 (KHTML, like Gecko) Chrome/119.0.0.0 Safari/537.36" version="22.1.17" etag="vLdZG3xmEvBCdmgwifQO" type="github">
  <diagram name="第 1 页" id="fQ9tRousY5DSWFT8Y5-h">
    <mxGraphModel>
      <root>
        <mxCell id="0" />
        <mxCell id="1" parent="0" />
      </root>
    </mxGraphModel>
  </diagram>
</mxfile>
